<svg width="50" height="50" viewBox="0 0 50 50" fill="none" xmlns="http://www.w3.org/2000/svg">
  <path d="M31.25 20.8333C34.2959 20.8333 36.7708 18.3584 36.7708 15.3125C36.7708 12.2666 34.2959 9.79169 31.25 9.79169" stroke="#1D3557" stroke-width="2" stroke-linecap="round" stroke-linejoin="round"/>
  <path d="M33.3333 29.1667C36.1667 29.4792 38.9583 30.3125 40.625 32.2917" stroke="#1D3557" stroke-width="2" stroke-linecap="round" stroke-linejoin="round"/>
  <path d="M18.75 20.8333C15.7041 20.8333 13.2292 18.3584 13.2292 15.3125C13.2292 12.2666 15.7041 9.79169 18.75 9.79169" stroke="#1D3557" stroke-width="2" stroke-linecap="round" stroke-linejoin="round"/>
  <path d="M16.6667 29.1667C13.8334 29.4792 11.0417 30.3125 9.37501 32.2917" stroke="#1D3557" stroke-width="2" stroke-linecap="round" stroke-linejoin="round"/>
  <path d="M25 21.875C28.0459 21.875 30.5208 19.4001 30.5208 16.3542C30.5208 13.3083 28.0459 10.8333 25 10.8333C21.9541 10.8333 19.4792 13.3083 19.4792 16.3542C19.4792 19.4001 21.9541 21.875 25 21.875Z" stroke="#1D3557" stroke-width="2" stroke-linecap="round" stroke-linejoin="round"/>
  <path d="M19.7917 39.5833C19.7917 35.4167 22.2917 32.2917 25 32.2917C27.7083 32.2917 30.2083 35.4167 30.2083 39.5833" stroke="#1D3557" stroke-width="2" stroke-linecap="round" stroke-linejoin="round"/>
</svg> 