<svg width="50" height="50" viewBox="0 0 50 50" fill="none" xmlns="http://www.w3.org/2000/svg">
  <path d="M25 4.16669C13.5 4.16669 4.16669 13.5 4.16669 25C4.16669 36.5 13.5 45.8334 25 45.8334C36.5 45.8334 45.8334 36.5 45.8334 25C45.8334 13.5 36.5 4.16669 25 4.16669Z" stroke="#E63946" stroke-width="2" stroke-linecap="round" stroke-linejoin="round"/>
  <path d="M25 14.5834C21.6919 14.5834 18.9584 17.3169 18.9584 20.625C18.9584 23.9331 21.6919 26.6667 25 26.6667C28.3081 26.6667 31.0417 23.9331 31.0417 20.625C31.0417 17.3169 28.3081 14.5834 25 14.5834Z" stroke="#E63946" stroke-width="2" stroke-linecap="round" stroke-linejoin="round"/>
  <path d="M15.7292 38.7083C15.7292 34.0417 19.9167 30.2708 25 30.2708C30.0834 30.2708 34.2709 34.0417 34.2709 38.7083" stroke="#E63946" stroke-width="2" stroke-linecap="round" stroke-linejoin="round"/>
</svg> 