<svg width="50" height="50" viewBox="0 0 50 50" fill="none" xmlns="http://www.w3.org/2000/svg">
  <path d="M16.6667 27.0833C20.3486 27.0833 23.3333 24.0986 23.3333 20.4167C23.3333 16.7348 20.3486 13.75 16.6667 13.75C12.9848 13.75 10 16.7348 10 20.4167C10 24.0986 12.9848 27.0833 16.6667 27.0833Z" stroke="#E63946" stroke-width="2" stroke-linecap="round" stroke-linejoin="round"/>
  <path d="M33.3333 27.0833C37.0152 27.0833 40 24.0986 40 20.4167C40 16.7348 37.0152 13.75 33.3333 13.75C29.6514 13.75 26.6667 16.7348 26.6667 20.4167C26.6667 24.0986 29.6514 27.0833 33.3333 27.0833Z" stroke="#E63946" stroke-width="2" stroke-linecap="round" stroke-linejoin="round"/>
  <path d="M16.6667 27.0833V37.5C16.6667 38.8333 17.5 41.6667 25 41.6667C32.5 41.6667 33.3333 38.8333 33.3333 37.5V27.0833" stroke="#E63946" stroke-width="2" stroke-linecap="round" stroke-linejoin="round"/>
  <path d="M10 32.2917L7.08337 37.5" stroke="#E63946" stroke-width="2" stroke-linecap="round" stroke-linejoin="round"/>
  <path d="M40 32.2917L42.9167 37.5" stroke="#E63946" stroke-width="2" stroke-linecap="round" stroke-linejoin="round"/>
</svg> 